<?xml version="1.0" standalone="no"?>
<!DOCTYPE svg PUBLIC "-//W3C//DTD SVG 20010904//EN"
 "http://www.w3.org/TR/2001/REC-SVG-20010904/DTD/svg10.dtd">
<svg version="1.0" xmlns="http://www.w3.org/2000/svg"
 width="537.000000pt" height="538.000000pt" viewBox="0 0 537.000000 538.000000"
 preserveAspectRatio="xMidYMid meet">

<g transform="translate(0.000000,538.000000) scale(0.100000,-0.100000)"
fill="#000000" stroke="none">
<path d="M2457 5360 c-518 -50 -996 -235 -1406 -544 -125 -93 -353 -315 -454
-441 -527 -656 -720 -1543 -512 -2349 174 -677 605 -1262 1191 -1618 306 -185
652 -310 1028 -370 188 -30 577 -32 756 -4 658 103 1243 419 1650 892 600 696
804 1630 549 2514 -139 483 -450 955 -850 1290 -395 331 -864 538 -1394 616
-122 18 -438 26 -558 14z m-641 -767 c67 -23 164 -120 187 -187 15 -45 17
-135 17 -951 0 -496 3 -904 6 -908 4 -3 54 35 113 86 659 571 796 700 890 843
133 201 188 382 198 639 3 81 11 160 19 187 41 129 208 220 347 189 115 -25
210 -110 238 -214 17 -62 5 -347 -20 -484 -67 -360 -250 -693 -545 -986 -50
-51 -122 -116 -158 -146 l-67 -54 39 -46 c91 -110 157 -230 311 -574 157 -350
207 -407 354 -407 80 0 135 16 260 76 75 36 86 39 170 39 79 0 97 -4 142 -28
94 -49 142 -134 142 -253 1 -105 -20 -157 -94 -230 -176 -174 -564 -259 -833
-184 -146 41 -295 132 -397 242 -110 118 -171 227 -323 569 -100 227 -203 389
-247 389 -14 0 -337 -270 -423 -354 -31 -30 -66 -78 -85 -116 l-32 -65 -5
-290 -5 -290 -27 -46 c-86 -146 -268 -202 -416 -128 -75 37 -134 102 -162 175
-20 54 -20 70 -20 1659 l0 1604 21 57 c34 90 115 166 209 195 44 13 145 9 196
-8z"/>
</g>
</svg>
